# xmcd CD database file
#
# Track frame offsets:
#	150
#	28754
#	52945
#	79646
#	115950
#	140612
#
# Disc length: 2174 seconds
#
# Revision: 1
# Processed by: cddbd v1.5.1PL2 Copyright (c) Steve Scherf et al.
# Submitted via: CDex 1.60beta1-cs1
#
DISCID=48087c06
DTITLE=Donald Byrd - Blackjack
DYEAR=1967
DGENRE=Jazz
TTITLE0=Blackjack
TTITLE1=West Of The Pecos
TTITLE2=Loki
TTITLE3=Eldorado
TTITLE4=Beale Street
TTITLE5=Pentatonic
EXTD=YEAR: 1967
EXTT0=
EXTT1=
EXTT2=
EXTT3=
EXTT4=
EXTT5=
PLAYORDER=
